PathFileType	4	(X/Y/Z)	C:/Users/beibeiliu/ov580/test_trc/User1\sequence.31_training_dense_left.trc
DataRate	CameraRate	NumFrames	NumMarkers	Units	OrigDataRate	OrigDataStartFrame	OrigNumFrames
120	120	23	19	mm	120	65	256
Frame#	Time	ThumbCMC			ThumbMCP			ThumbIP			ThumbTip			IndexMCP			IndexPIP			IndexTip			MiddleMCP			MiddlePIP			MiddleTip			RingMCP			RingPIP			RingTip			PinkyMCP			PinkyPIP			PinkyTip			BackHand1			BackHand2			BackHand3	
		X0	Y0	Z0	X1	Y1	Z1	X2	Y2	Z2	X3	Y3	Z3	X4	Y4	Z4	X5	Y5	Z5	X6	Y6	Z6	X7	Y7	Z7	X8	Y8	Z8	X9	Y9	Z9	X10	Y10	Z10	X11	Y11	Z11	X12	Y12	Z12	X13	Y13	Z13	X14	Y14	Z14	X15	Y15	Z15	X16	Y16	Z16	X17	Y17	Z17	X18	Y18	Z18	
64	0.533333	-81.8056	-38.5759	55.3991	-71.4488	-67.0273	36.4981	-63.9284	-80.9789	7.09304	-68.8146	-93.5764	-11.6853	-76.895	-9.1134	-24.6864	-71.9814	-11.0491	-54.4913	-70.6298	-21.4261	-77.0043	-101.259	1.48131	-33.4762	-101.673	-1.98459	-66.5421	-103.91	-14.8796	-96.1456	-129.874	-11.5536	-34.9351	-127.714	-32.3457	-60.3173	-127.814	-64.8632	-62.9916	-149.437	-31.2834	-17.6092	-146.608	-60.3966	-24.4163	-134.487	-81.8914	-5.83166	-132.596	0.80341	26.1924	-138.121	0.807007	59.6821	-99.1583	-4.28901	45.1145	
65	0.541667	-83.2243	-39.001	55.0993	-72.7325	-65.5224	28.964	-70.4042	-79.2977	9.21697	-72.7814	-92.0062	-15.1819	-79.0719	-8.1728	-20.007	-76.6763	-10.5453	-53.8519	-76.0255	-23.2378	-81.1403	-104.337	2.48356	-33.6684	-107.484	-1.29786	-66.1693	-110.589	-14.8262	-92.8622	-127.471	-12.5905	-34.8015	-128.277	-35.8425	-59.6352	-131.038	-66.6333	-57.2112	-151.425	-34.5026	-19.5955	-149.392	-62.5821	-20.9531	-128.687	-75.3308	1.972	-135.682	-0.681058	28.0157	-142.576	2.87397	57.1011	-104.64	-1.62028	45.9035	
66	0.55	-83.0023	-39.2843	55.3425	-71.8815	-65.0949	31.8577	-70.6645	-76.8912	4.66413	-74.7251	-90.5232	-19.2402	-80.0857	-6.94808	-19.456	-77.4187	-8.57557	-52.1884	-77.5433	-24.5926	-78.8226	-108.913	3.95311	-34.102	-105.462	0.899727	-62.507	-110.509	-19.7929	-94.1115	-131.288	-11.4377	-34.8101	-133.018	-34.6407	-59.4704	-130.218	-64.2379	-53.6827	-155.68	-30.8089	-17.3592	-146.995	-60.0576	-20.3577	-134.56	-72.4714	6.87502	-136.528	0.730459	28.5096	-143.959	0.0297504	57.7408	-105.28	-1.10328	47.1037	
67	0.558333	-82.7191	-38.0252	55.7341	-73.6548	-63.328	31.263	-69.7816	-74.6747	2.46812	-80.6834	-83.305	-21.9844	-84.2881	-4.99873	-20.349	-79.4608	-7.27416	-50.9199	-79.3137	-24.0474	-76.6663	-110.884	4.00876	-31.9691	-109.352	-0.40783	-65.3129	-112.818	-21.1337	-90.8955	-132.937	-9.88322	-33.607	-132.252	-37.1316	-57.0508	-130.18	-65.9354	-45.8111	-156.581	-33.5478	-19.6859	-147.649	-61.6896	-17.7074	-132.186	-64.5747	11.4191	-138.722	2.57981	28.2555	-143.394	-0.386939	57.9326	-106.33	-1.36557	46.9108	
68	0.566667	-83.9078	-38.4525	57.0374	-72.9821	-62.8563	30.4916	-72.7609	-70.4592	4.60289	-80.0775	-82.0085	-22.6938	-82.4637	-2.64272	-22.2843	-80.328	-6.48326	-55.5519	-84.63	-26.2735	-76.1125	-110.962	6.97052	-31.8642	-110.945	1.0605	-63.1597	-109.879	-23.2005	-88.3471	-131.242	-8.13687	-31.8546	-131.783	-35.0004	-55.5366	-133.459	-63.6502	-43.0147	-158.683	-30.4802	-19.1385	-145.796	-58.737	-19.0214	-130.347	-62.0769	8.21368	-137.581	2.76859	25.3159	-146.396	2.40015	59.2865	-108.118	-1.54693	45.8991	
69	0.575	-87.6839	-37.6981	57.5468	-74.171	-59.6367	27.6356	-70.7229	-68.2324	1.05255	-79.0367	-78.8521	-23.5698	-78.7296	-0.907948	-20.931	-80.0172	-6.11749	-54.1165	-83.8256	-28.4485	-73.4881	-110.142	8.47535	-33.9391	-109.983	2.09806	-63.4004	-109.161	-27.9779	-87.0247	-134.261	-7.64159	-33.0023	-133.63	-32.4738	-55.1566	-129.337	-61.9719	-39.6925	-157.177	-28.6147	-20.5692	-144.593	-55.9962	-20.7986	-131.727	-64.0119	5.92178	-139.667	4.13076	29.7238	-147.475	0.139777	63.4556	-107.805	-1.5956	48.2288	
70	0.583333	-84.202	-37.3408	57.8839	-76.0246	-55.9783	29.0654	-70.4031	-64.9006	0.350044	-78.8972	-72.3643	-25.9642	-78.6008	2.31136	-19.8305	-76.8949	-0.43908	-49.1889	-83.4371	-30.5256	-72.0124	-105.627	9.80889	-30.1337	-107.804	2.81813	-62.819	-104.479	-27.7356	-82.2278	-133.322	-4.37999	-32.1153	-128.609	-34.1058	-54.1624	-128.491	-62.4962	-34.6596	-156.418	-26.8812	-21.5014	-148.262	-54.4136	-22.8457	-128.801	-59.3105	7.10514	-139.439	5.61092	27.252	-141.988	-0.187949	63.1595	-106.898	-0.782584	49.6603	
71	0.591667	-83.1952	-35.0124	55.3278	-72.1964	-56.8546	31.0461	-71.8076	-60.6739	0.57786	-79.2244	-69.9069	-26.819	-83.2974	4.03182	-19.6834	-79.2188	-1.76335	-51.5907	-82.3764	-31.3429	-68.4531	-106.095	12.7792	-28.7003	-103.39	3.32568	-62.2	-104.348	-32.9341	-79.0888	-129.203	-3.58111	-33.9115	-128.844	-26.8543	-54.0459	-127.659	-59.8674	-34.591	-155.153	-21.7166	-17.4799	-144.157	-51.2823	-22.4486	-127.202	-59.3181	6.69927	-137.582	6.19979	26.5874	-143.324	2.16537	61.9433	-102.876	0.597023	49.2581	
72	0.6	-83.5776	-36.7147	60.4502	-71.8687	-54.8203	30.2941	-67.716	-60.1387	0.291095	-81.2082	-64.0282	-25.5999	-82.0008	6.0836	-18.2775	-80.7698	1.21591	-49.7984	-80.0911	-27.8537	-64.9571	-107.869	14.0283	-30.8278	-106.942	0.735072	-63.4594	-106.306	-33.1634	-73.5868	-130.225	-1.51569	-32.6822	-126.284	-28.411	-54.1394	-123.713	-57.4202	-34.1772	-150.447	-20.3625	-18.1933	-144.039	-49.8798	-23.7795	-130.191	-61.0391	6.41648	-139.359	7.21751	30.1686	-143.046	1.60115	65.8073	-106.531	0.65525	51.5894	
73	0.608333	-85.2956	-34.8258	61.16	-73.1879	-49.449	28.4346	-69.7049	-55.0039	-2.57179	-79.2477	-63.5164	-26.0441	-79.9583	6.82193	-15.0891	-76.6935	2.31964	-49.1983	-81.7544	-31.3833	-61.8395	-104.107	14.3683	-27.8993	-105.017	3.93782	-60.024	-105.257	-36.942	-68.401	-127.187	1.51623	-29.6118	-123.887	-26.9833	-52.3747	-124.652	-54.3836	-31.8245	-149.873	-20.5694	-21.4021	-144.421	-49.4416	-23.6626	-128.574	-54.4432	6.76869	-134.678	7.29143	28.8768	-146.226	3.04688	60.6412	-106.337	1.92532	50.1914	
74	0.616667	-86.9624	-32.6845	59.4531	-69.7377	-50.149	28.966	-69.4046	-52.6211	-3.09181	-77.7973	-60.6042	-27.3377	-81.1025	8.23232	-15.6509	-80.3446	2.79266	-48.4159	-78.3569	-30.0855	-59.0545	-103.435	16.6877	-29.8128	-103.403	2.57762	-59.9645	-100.81	-34.3256	-65.3496	-125.439	3.44101	-28.0275	-125.594	-25.4412	-53.352	-124.641	-48.8697	-35.2861	-152.016	-17.6247	-20.1916	-142.549	-43.0704	-26.2197	-129.112	-53.839	2.91902	-139.623	6.07965	31.4493	-142.083	3.60249	64.8815	-105.182	2.28026	52.32	
75	0.625	-83.4017	-33.4039	58.9974	-71.9256	-49.2194	27.6182	-67.4765	-52.3975	-0.383444	-78.5995	-58.6073	-27.3067	-83.1551	10.5208	-15.1069	-81.0998	1.58568	-49.1921	-77.2367	-29.4906	-57.2346	-102.698	17.6373	-27.5713	-103.138	3.53928	-59.9037	-102.25	-37.3587	-60.7786	-128.088	4.7199	-30.3766	-122.028	-20.2654	-53.0224	-125.185	-49.8664	-30.8517	-149.354	-14.1281	-17.8484	-144.213	-42.096	-28.5278	-128.092	-53.8727	0.145537	-133.425	8.48458	28.353	-142.195	2.48142	66.4171	-107.516	3.29376	54.8958	
76	0.633333	-82.3345	-32.0018	57.1803	-70.0329	-48.7814	28.7355	-70.4634	-49.0497	-1.27716	-77.4058	-56.3199	-28.7949	-77.2494	10.7101	-12.5057	-75.8287	5.32882	-47.8847	-79.5931	-27.4168	-55.9593	-102.308	19.5648	-29.1127	-102.948	4.69251	-60.3161	-100.458	-32.6358	-61.8851	-123.756	7.38747	-28.5128	-125.039	-19.5367	-53.7881	-125.892	-45.4142	-36.0469	-150.787	-12.0394	-20.8181	-143.468	-38.4935	-30.7325	-129.227	-55.8394	-0.622583	-135.847	7.85141	32.4977	-145.658	5.75843	61.8019	-106.514	5.92988	51.0736	
77	0.641667	-87.3487	-31.6341	59.5297	-72.5014	-46.4323	28.7684	-67.5815	-50.9856	-0.394417	-76.2141	-55.9656	-25.8614	-80.6261	11.6434	-12.8316	-77.023	6.14336	-47.5696	-79.1485	-28.2356	-57.075	-101.039	19.9333	-26.4476	-99.6971	7.80708	-57.9883	-103.051	-30.874	-61.7582	-125.511	8.46252	-29.5964	-125.02	-16.5395	-54.2159	-124.929	-46.0805	-38.907	-148.138	-9.60406	-21.6787	-141.299	-36.5175	-32.1218	-129.654	-52.6483	-9.50488	-137.235	11.7209	31.2173	-145.929	3.87384	63.7911	-107.851	6.03834	51.8036	
78	0.65	-83.9839	-32.9845	61.1921	-71.2641	-45.9036	28.0537	-68.249	-50.268	1.33037	-77.0683	-54.3797	-24.1795	-79.8135	11.6987	-14.7046	-75.9583	8.71404	-45.5749	-78.4306	-22.6647	-58.5789	-106.044	19.8477	-24.0012	-100.217	6.29829	-60.6401	-99.7794	-28.7585	-65.6012	-126.168	11.0156	-25.4633	-125.98	-9.74435	-56.7097	-124.634	-39.5351	-50.0703	-149.566	-6.85451	-16.8583	-141.818	-33.2776	-34.9916	-130.681	-55.1478	-17.2086	-135.861	7.76283	33.8579	-144.699	3.30465	62.8061	-105.673	2.76812	53.532	
79	0.658333	-86.0874	-32.0042	58.9305	-70.583	-47.502	30.4285	-63.4237	-52.5672	1.89051	-71.3978	-57.9511	-24.7018	-82.6681	11.4374	-13.1148	-79.5849	7.09771	-48.6676	-78.7157	-18.7686	-62.3689	-106.207	20.95	-25.4654	-100.117	13.112	-57.6585	-103.565	-22.2132	-70.6769	-125.534	13.3292	-29.3742	-126.515	-4.16883	-57.2456	-123.48	-34.9751	-57.9571	-150.661	-5.21147	-18.6	-146.318	-25.8933	-39.1199	-133.126	-52.9034	-27.8313	-139.302	7.82597	33.526	-143.924	5.515	63.2711	-107.075	4.96757	53.2152	
80	0.666667	-88.2738	-31.2301	58.0685	-69.7663	-49.5926	33.9994	-65.3379	-51.4954	4.00124	-68.3422	-60.5732	-20.1903	-82.6487	13.5881	-16.9208	-80.8845	9.13857	-49.7501	-78.2378	-17.6432	-66.5818	-107.149	21.6502	-25.5122	-103.294	16.2005	-60.5491	-102.617	-13.7909	-77.8229	-127.502	12.6261	-25.786	-125.13	1.60503	-56.4691	-123.677	-32.5975	-64.7642	-155.932	-5.44575	-21.523	-146.621	-22.4157	-38.3116	-136.269	-52.0032	-37.2837	-140.841	11.8764	28.6444	-143.823	3.34282	63.9435	-108.38	3.91091	53.4001	
81	0.675	-84.8597	-32.7076	59.6729	-70.5316	-49.7591	32.5743	-62.2485	-54.6803	5.8642	-62.8917	-65.1434	-17.4478	-83.8091	10.8059	-15.1886	-83.4772	12.717	-46.8638	-84.4251	-10.9848	-71.6895	-105.55	21.3258	-25.4367	-101.447	20.8905	-58.8833	-107.997	-2.26087	-85.9592	-132.483	11.6341	-26.3482	-131.973	2.96848	-57.9155	-127.649	-29.7839	-71.9746	-153.646	-7.52567	-21.0154	-149.912	-24.0492	-39.7338	-141.482	-54.3366	-43.0476	-143.101	9.55058	30.8606	-149.306	3.69201	62.1496	-109.929	3.01833	51.2703	
82	0.683333	-86.4903	-30.9951	57.5793	-74.2426	-50.0109	35.6566	-63.4715	-57.6855	6.15361	-60.7972	-66.8767	-15.6701	-85.4763	10.862	-17.2501	-83.4684	13.678	-47.2167	-87.9898	-1.16224	-74.9489	-112.164	19.7796	-23.799	-108.934	22.8574	-61.185	-112.955	9.24758	-91.1045	-136.133	10.1828	-28.6824	-137.766	0.522759	-59.401	-132.041	-27.0624	-74.9603	-159.863	-9.5994	-16.6177	-157.398	-27.6192	-39.7399	-146.543	-54.6609	-43.6492	-141.209	9.33746	28.0322	-147.278	4.43637	62.9797	-113.109	4.28604	51.878	
83	0.691667	-90.2447	-31.0111	58.1417	-72.3508	-51.8303	34.8155	-64.5134	-59.2396	9.02902	-56.5	-72.3646	-12.1748	-88.9788	7.95705	-18.6851	-87.9695	13.0137	-49.2998	-88.6447	5.86817	-76.9963	-119.338	20.2452	-29.5498	-119.039	23.2927	-59.8473	-121.044	17.7254	-89.6001	-140.48	6.64385	-29.0083	-142.002	-3.03008	-60.5678	-141.289	-30.9681	-77.8769	-165.94	-15.0113	-18.1577	-164.147	-34.3677	-37.7704	-146.262	-61.1449	-40.9789	-147.747	6.92599	26.615	-153.101	2.86281	61.424	-113.929	4.09328	47.9618	
84	0.7	-87.9416	-29.1877	53.2784	-72.7813	-51.8769	32.7441	-59.3525	-62.8623	11.2474	-53.9299	-76.3624	-6.8026	-92.6355	6.79307	-20.2227	-92.2496	11.7854	-53.3947	-90.2321	9.467	-76.6912	-119.953	17.0178	-31.6399	-123.861	22.8694	-58.0164	-124.213	22.2361	-90.6652	-145.719	3.19585	-32.2623	-143.945	-10.4239	-64.2351	-143.048	-36.8872	-78.7491	-165.467	-20.0958	-21.0953	-165.739	-42.5022	-35.5829	-147.247	-66.7343	-36.8245	-150.772	7.74576	25.2377	-152.849	1.651	62.5044	-114.577	3.91058	46.1801	
85	0.708333	-89.2332	-30.482	54.0386	-76.5787	-51.7674	31.7055	-64.7835	-63.6375	11.7165	-52.679	-78.0858	-5.31995	-97.1093	5.06012	-24.8087	-96.218	9.43	-49.6487	-95.8729	9.86744	-78.2929	-123.615	14.9178	-30.3637	-125.032	21.402	-61.9628	-128.749	22.4148	-89.2576	-150.434	0.551523	-33.7446	-146.345	-12.5612	-63.9435	-149.504	-41.4713	-78.7859	-172.049	-25.9453	-22.4469	-166.128	-47.0796	-33.3085	-149.989	-76.8118	-31.2355	-153.269	4.18143	26.2453	-152.346	2.66514	58.0008	-116.327	1.94255	47.0686	
86	0.716667	-92.3639	-29.6163	53.532	-76.0988	-52.7298	32.853	-62.1689	-65.4064	15.8338	-50.4529	-79.8434	-4.78153	-100.946	2.61856	-24.5484	-95.3066	9.49885	-52.5445	-97.5466	10.6533	-80.9733	-130.545	12.0818	-30.2106	-129.495	18.3976	-59.0025	-135.448	23.289	-93.1965	-149.999	-3.30895	-34.1131	-151.584	-18.7781	-65.8894	-151.675	-42.4541	-77.1985	-170.346	-27.6593	-20.1646	-163.212	-52.9114	-31.0718	-152.541	-78.32	-27.132	-154.996	1.45447	26.678	-153.094	3.31764	56.8634	-116.982	2.99005	44.4546	
